<svg width="48" height="48" viewBox="0 0 48 48" fill="none" xmlns="http://www.w3.org/2000/svg">
<circle cx="24" cy="24" r="24" fill="#7B61FF"/>
<path d="M33 29.4232C32.508 30.5132 32.273 30.9992 31.639 31.9632C30.756 33.3082 29.51 34.9832 27.966 34.9972C26.594 35.0102 26.242 34.1052 24.38 34.1152C22.519 34.1252 22.13 35.0132 20.758 35.0002C19.214 34.9862 18.035 33.4742 17.15 32.1282C14.68 28.3662 14.422 23.9522 15.946 21.6062C17.029 19.9382 18.738 18.9632 20.345 18.9632C21.981 18.9632 23.009 19.8602 24.362 19.8602C25.674 19.8602 26.474 18.9622 28.365 18.9622C29.795 18.9622 31.309 19.7402 32.389 21.0852C28.853 23.0232 29.427 28.0722 33 29.4232Z" stroke="black" stroke-width="2" stroke-miterlimit="10" stroke-linecap="round" stroke-linejoin="round"/>
<path d="M27.0999 15.4501C27.7499 14.6161 28.2429 13.4391 28.0639 12.2361C27.0019 12.3091 25.7619 12.9841 25.0369 13.8641C24.3789 14.6631 23.8359 15.8471 24.0469 16.9991C25.2049 17.0351 26.4039 16.3431 27.0999 15.4501Z" fill="black"/>
</svg>
