<svg width="48" height="48" viewBox="0 0 48 48" fill="none" xmlns="http://www.w3.org/2000/svg">
<circle cx="24" cy="24" r="24" fill="#7B61FF"/>
<path d="M32 22V15C32 14.4696 31.7893 13.9609 31.4142 13.5858C31.0391 13.2107 30.5304 13 30 13H18C17.4696 13 16.9609 13.2107 16.5858 13.5858C16.2107 13.9609 16 14.4696 16 15V22" stroke="black" stroke-width="2" stroke-miterlimit="10" stroke-linecap="round" stroke-linejoin="round"/>
<path d="M16 30V33C16 33.5304 16.2107 34.0391 16.5858 34.4142C16.9609 34.7893 17.4696 35 18 35H30C30.5304 35 31.0391 34.7893 31.4142 34.4142C31.7893 34.0391 32 33.5304 32 33V30" stroke="black" stroke-width="2" stroke-miterlimit="10" stroke-linecap="round" stroke-linejoin="round"/>
<path d="M13 26H17C17.5304 26 18.0391 25.7893 18.4142 25.4142C18.7893 25.0391 19 24.5304 19 24V20.5C19 20.1022 19.158 19.7206 19.4393 19.4393C19.7206 19.158 20.1022 19 20.5 19C20.8978 19 21.2794 19.158 21.5607 19.4393C21.842 19.7206 22 20.1022 22 20.5V27C22 27.5304 22.2107 28.0391 22.5858 28.4142C22.9609 28.7893 23.4696 29 24 29C24.5304 29 25.0391 28.7893 25.4142 28.4142C25.7893 28.0391 26 27.5304 26 27V22.5C26 22.1022 26.158 21.7206 26.4393 21.4393C26.7206 21.158 27.1022 21 27.5 21C27.8978 21 28.2794 21.158 28.5607 21.4393C28.842 21.7206 29 22.1022 29 22.5V24C29 24.5304 29.2107 25.0391 29.5858 25.4142C29.9609 25.7893 30.4696 26 31 26H35" stroke="black" stroke-width="2" stroke-miterlimit="10" stroke-linecap="round" stroke-linejoin="round"/>
</svg>
