<svg width="48" height="49" viewBox="0 0 48 49" fill="none" xmlns="http://www.w3.org/2000/svg">
<circle cx="24" cy="24.0132" r="24" fill="#61FFCA"/>
<path d="M20 27.0132C21.6569 27.0132 23 25.67 23 24.0132C23 22.3563 21.6569 21.0132 20 21.0132C18.3431 21.0132 17 22.3563 17 24.0132C17 25.67 18.3431 27.0132 20 27.0132Z" stroke="black" stroke-width="2" stroke-miterlimit="10" stroke-linecap="round" stroke-linejoin="round"/>
<path d="M20 17.0132H28C29.8565 17.0132 31.637 17.7507 32.9497 19.0634C34.2625 20.3762 35 22.1567 35 24.0132C35 25.8697 34.2625 27.6502 32.9497 28.9629C31.637 30.2757 29.8565 31.0132 28 31.0132H20C18.1435 31.0132 16.363 30.2757 15.0503 28.9629C13.7375 27.6502 13 25.8697 13 24.0132V24.0132C13 22.1567 13.7375 20.3762 15.0503 19.0634C16.363 17.7507 18.1435 17.0132 20 17.0132V17.0132Z" stroke="black" stroke-width="2" stroke-miterlimit="10" stroke-linecap="round" stroke-linejoin="round"/>
</svg>
