<svg width="49" height="48" viewBox="0 0 49 48" fill="none" xmlns="http://www.w3.org/2000/svg">
<circle cx="24.2382" cy="24.1542" r="23.7714" fill="#7B61FF"/>
<g clip-path="url(#clip0_85_295)">
<path d="M19.2859 35.0493C20.3799 35.0493 21.2668 34.1624 21.2668 33.0684C21.2668 31.9743 20.3799 31.0874 19.2859 31.0874C18.1918 31.0874 17.3049 31.9743 17.3049 33.0684C17.3049 34.1624 18.1918 35.0493 19.2859 35.0493Z" stroke="black" stroke-width="1.98095" stroke-miterlimit="10" stroke-linecap="round" stroke-linejoin="round"/>
<path d="M31.1716 35.0493C32.2657 35.0493 33.1526 34.1624 33.1526 33.0684C33.1526 31.9743 32.2657 31.0874 31.1716 31.0874C30.0776 31.0874 29.1907 31.9743 29.1907 33.0684C29.1907 34.1624 30.0776 35.0493 31.1716 35.0493Z" stroke="black" stroke-width="1.98095" stroke-miterlimit="10" stroke-linecap="round" stroke-linejoin="round"/>
<path d="M33.3883 21.9849L32.1621 28.1159H18.2954L16.3144 13.2588H13.343" stroke="black" stroke-width="1.98095" stroke-miterlimit="10" stroke-linecap="round" stroke-linejoin="round"/>
<path d="M16.9751 18.2114H25.2287" stroke="black" stroke-width="1.98095" stroke-miterlimit="10" stroke-linecap="round" stroke-linejoin="round"/>
<path d="M30.1811 23.1636C32.9163 23.1636 35.1335 20.9463 35.1335 18.2112C35.1335 15.476 32.9163 13.2588 30.1811 13.2588C27.446 13.2588 25.2288 15.476 25.2288 18.2112C25.2288 20.9463 27.446 23.1636 30.1811 23.1636Z" stroke="black" stroke-width="1.98095" stroke-miterlimit="10" stroke-linecap="round" stroke-linejoin="round"/>
<path d="M30.1812 16.2305V20.1924" stroke="black" stroke-width="1.98095" stroke-miterlimit="10" stroke-linecap="round" stroke-linejoin="round"/>
<path d="M28.2002 18.2114H32.1621" stroke="black" stroke-width="1.98095" stroke-miterlimit="10" stroke-linecap="round" stroke-linejoin="round"/>
</g>
<defs>
<clipPath id="clip0_85_295">
<rect width="23.7714" height="23.7714" fill="white" transform="translate(12.3525 12.2686)"/>
</clipPath>
</defs>
</svg>
