<svg width="56" height="56" viewBox="0 0 56 56" fill="none" xmlns="http://www.w3.org/2000/svg">
<circle cx="28" cy="28" r="28" fill="white"/>
<path fill-rule="evenodd" clip-rule="evenodd" d="M20 26C20 21.5817 23.5817 18 28 18C32.4183 18 36 21.5817 36 26C36 31.4 29 37.5 28.65 37.76C28.2758 38.0801 27.7242 38.0801 27.35 37.76L27.3483 37.7586C27.025 37.4784 20 31.3904 20 26ZM22 26C22 29.34 25.87 33.65 28 35.65C30.13 33.66 34 29.34 34 26C34 22.6863 31.3137 20 28 20C24.6863 20 22 22.6863 22 26ZM28 22C25.7909 22 24 23.7909 24 26C24 28.2091 25.7909 30 28 30C30.2091 30 32 28.2091 32 26C32 24.9391 31.5786 23.9217 30.8284 23.1716C30.0783 22.4214 29.0609 22 28 22ZM26 26C26 27.1046 26.8954 28 28 28C29.1046 28 30 27.1046 30 26C30 24.8954 29.1046 24 28 24C26.8954 24 26 24.8954 26 26Z" fill="#235AF9"/>
</svg>
