<svg width="213" height="50" viewBox="0 0 213 50" fill="none" xmlns="http://www.w3.org/2000/svg">
<g clip-path="url(#clip0_0_3313)">
<g filter="url(#filter0_dd_0_3313)">
<rect width="213" height="50" rx="4" fill="white"/>
<rect x="-0.5" y="-0.5" width="214" height="51" rx="4.5" stroke="#01021D" stroke-opacity="0.0139314"/>
</g>
<path d="M52.4091 30H59.5227V28.75H53.8182V24.7955H59.0682V23.5455H53.8182V19.6136H59.4318V18.3636H52.4091V30ZM62.3923 18.3636H61.0514V30H62.3923V18.3636ZM67.769 30.1818C69.5417 30.1818 70.8371 29.2955 71.2462 27.9773L69.9508 27.6136C69.6099 28.5227 68.8201 28.9773 67.769 28.9773C66.1951 28.9773 65.1099 27.9602 65.0474 26.0909H71.3826V25.5227C71.3826 22.2727 69.4508 21.1591 67.6326 21.1591C65.269 21.1591 63.7008 23.0227 63.7008 25.7045C63.7008 28.3864 65.2462 30.1818 67.769 30.1818ZM65.0474 24.9318C65.1383 23.5739 66.0985 22.3636 67.6326 22.3636C69.0871 22.3636 70.019 23.4545 70.019 24.9318H65.0474ZM72.684 30H74.0249V24.5455C74.0249 23.267 74.9567 22.3636 76.0022 22.3636C77.0192 22.3636 77.7294 23.0284 77.7294 24.0227V30H79.0931V24.3182C79.0931 23.1932 79.7976 22.3636 81.0249 22.3636C81.9794 22.3636 82.7976 22.8693 82.7976 24.1591V30H84.1385V24.1591C84.1385 22.108 83.0362 21.1591 81.4794 21.1591C80.2294 21.1591 79.3147 21.733 78.8658 22.6364H78.7749C78.3431 21.7045 77.5817 21.1591 76.434 21.1591C75.2976 21.1591 74.4567 21.7045 74.0931 22.6364H73.9794V21.2727H72.684V30ZM89.5109 30.1818C91.2837 30.1818 92.5791 29.2955 92.9882 27.9773L91.6927 27.6136C91.3518 28.5227 90.5621 28.9773 89.5109 28.9773C87.9371 28.9773 86.8518 27.9602 86.7893 26.0909H93.1246V25.5227C93.1246 22.2727 91.1927 21.1591 89.3746 21.1591C87.0109 21.1591 85.4427 23.0227 85.4427 25.7045C85.4427 28.3864 86.9882 30.1818 89.5109 30.1818ZM86.7893 24.9318C86.8802 23.5739 87.8405 22.3636 89.3746 22.3636C90.8291 22.3636 91.7609 23.4545 91.7609 24.9318H86.7893ZM95.7669 24.75C95.7669 23.2273 96.71 22.3636 97.9941 22.3636C99.2384 22.3636 99.9941 23.1761 99.9941 24.5455V30H101.335V24.4545C101.335 22.2273 100.148 21.1591 98.3805 21.1591C97.0623 21.1591 96.2441 21.75 95.835 22.6364H95.7214V21.2727H94.4259V30H95.7669V24.75ZM106.842 21.2727H104.979V19.1818H103.638V21.2727H102.32V22.4091H103.638V27.8636C103.638 29.3864 104.865 30.1136 106.001 30.1136C106.501 30.1136 106.82 30.0227 107.001 29.9545L106.729 28.75C106.615 28.7727 106.433 28.8182 106.138 28.8182C105.547 28.8182 104.979 28.6364 104.979 27.5V22.4091H106.842V21.2727ZM119.701 18.3636V26.0682C119.701 27.8864 118.246 28.8864 116.587 28.8864C114.928 28.8864 113.474 27.8864 113.474 26.0682V18.3636H112.064V26.0682C112.064 28.6818 114.133 30.2045 116.587 30.2045C119.042 30.2045 121.11 28.6818 121.11 26.0682V18.3636H119.701ZM124.595 18.3636H123.185V30H124.595V18.3636ZM132.557 30H134.011L136.579 20.7273H136.67L139.238 30H140.693L143.875 18.3636H142.443L140.011 27.8409H139.898L137.42 18.3636H135.829L133.352 27.8409H133.238L130.807 18.3636H129.375L132.557 30ZM147.557 30.1818C149.33 30.1818 150.625 29.2955 151.034 27.9773L149.739 27.6136C149.398 28.5227 148.608 28.9773 147.557 28.9773C145.983 28.9773 144.898 27.9602 144.835 26.0909H151.171V25.5227C151.171 22.2727 149.239 21.1591 147.421 21.1591C145.057 21.1591 143.489 23.0227 143.489 25.7045C143.489 28.3864 145.034 30.1818 147.557 30.1818ZM144.835 24.9318C144.926 23.5739 145.886 22.3636 147.421 22.3636C148.875 22.3636 149.807 23.4545 149.807 24.9318H144.835ZM152.654 30H153.949V28.6591H154.108C154.404 29.1364 154.972 30.1818 156.654 30.1818C158.836 30.1818 160.358 28.4318 160.358 25.6591C160.358 22.9091 158.836 21.1591 156.631 21.1591C154.926 21.1591 154.404 22.2045 154.108 22.6591H153.995V18.3636H152.654V30ZM153.972 25.6364C153.972 23.6818 154.836 22.3636 156.472 22.3636C158.176 22.3636 159.017 23.7955 159.017 25.6364C159.017 27.5 158.154 28.9773 156.472 28.9773C154.858 28.9773 153.972 27.6136 153.972 25.6364ZM165.614 30H167.024V26.2273L168.478 24.5909L172.524 30H174.228L169.342 23.6136L174.228 18.3636H172.387L167.16 24.1364H167.024V18.3636H165.614V30ZM175.679 30H177.02V21.2727H175.679V30ZM176.36 19.8182C176.883 19.8182 177.315 19.4091 177.315 18.9091C177.315 18.4091 176.883 18 176.36 18C175.838 18 175.406 18.4091 175.406 18.9091C175.406 19.4091 175.838 19.8182 176.36 19.8182ZM182.533 21.2727H180.669V19.1818H179.328V21.2727H178.01V22.4091H179.328V27.8636C179.328 29.3864 180.555 30.1136 181.692 30.1136C182.192 30.1136 182.51 30.0227 182.692 29.9545L182.419 28.75C182.305 28.7727 182.123 28.8182 181.828 28.8182C181.237 28.8182 180.669 28.6364 180.669 27.5V22.4091H182.533V21.2727Z" fill="#4D4D60"/>
<path fill-rule="evenodd" clip-rule="evenodd" d="M20 23C20 18.5817 23.5817 15 28 15C32.4183 15 36 18.5817 36 23C36 28.4 29 34.5 28.65 34.76C28.2758 35.0801 27.7242 35.0801 27.35 34.76L27.3483 34.7586C27.025 34.4784 20 28.3904 20 23ZM22 23C22 26.34 25.87 30.65 28 32.65C30.13 30.66 34 26.34 34 23C34 19.6863 31.3137 17 28 17C24.6863 17 22 19.6863 22 23ZM28 19C25.7909 19 24 20.7909 24 23C24 25.2091 25.7909 27 28 27C30.2091 27 32 25.2091 32 23C32 21.9391 31.5786 20.9217 30.8284 20.1716C30.0783 19.4214 29.0609 19 28 19ZM26 23C26 24.1046 26.8954 25 28 25C29.1046 25 30 24.1046 30 23C30 21.8954 29.1046 21 28 21C26.8954 21 26 21.8954 26 23Z" fill="#235AF9"/>
</g>
<defs>
<filter id="filter0_dd_0_3313" x="-41" y="-21" width="295" height="152" filterUnits="userSpaceOnUse" color-interpolation-filters="sRGB">
<feFlood flood-opacity="0" result="BackgroundImageFix"/>
<feColorMatrix in="SourceAlpha" type="matrix" values="0 0 0 0 0 0 0 0 0 0 0 0 0 0 0 0 0 0 127 0" result="hardAlpha"/>
<feMorphology radius="10" operator="erode" in="SourceAlpha" result="effect1_dropShadow_0_3313"/>
<feOffset dy="40"/>
<feGaussianBlur stdDeviation="25"/>
<feColorMatrix type="matrix" values="0 0 0 0 0.00392157 0 0 0 0 0.00784314 0 0 0 0 0.113725 0 0 0 0.02 0"/>
<feBlend mode="normal" in2="BackgroundImageFix" result="effect1_dropShadow_0_3313"/>
<feColorMatrix in="SourceAlpha" type="matrix" values="0 0 0 0 0 0 0 0 0 0 0 0 0 0 0 0 0 0 127 0" result="hardAlpha"/>
<feOffset/>
<feGaussianBlur stdDeviation="10"/>
<feColorMatrix type="matrix" values="0 0 0 0 0.00392157 0 0 0 0 0.00784314 0 0 0 0 0.113725 0 0 0 0.0153792 0"/>
<feBlend mode="normal" in2="effect1_dropShadow_0_3313" result="effect2_dropShadow_0_3313"/>
<feBlend mode="normal" in="SourceGraphic" in2="effect2_dropShadow_0_3313" result="shape"/>
</filter>
<clipPath id="clip0_0_3313">
<rect width="213" height="50" fill="white"/>
</clipPath>
</defs>
</svg>
