<svg width="40" height="34" viewBox="0 0 40 34" fill="none" xmlns="http://www.w3.org/2000/svg">
<path d="M19.9867 0.276647C19.2633 0.276647 18.5367 0.41998 17.8533 0.70498L2.965 6.86165C2.12667 7.20831 2.14833 8.37498 2.985 8.72165L17.955 14.6516C19.2665 15.1833 20.7335 15.1833 22.045 14.6516L37.015 8.72165C37.8533 8.39498 37.8533 7.20831 37.035 6.86165L22.1067 0.70498C21.4359 0.421355 20.7149 0.275682 19.9867 0.276647ZM39 10.4266C38.873 10.4275 38.7473 10.4529 38.63 10.5016L21.9433 16.9633C21.7566 17.0398 21.5968 17.1699 21.4841 17.3372C21.3713 17.5046 21.3108 17.7016 21.31 17.9033V32.73C21.3116 32.8923 21.3526 33.0518 21.4296 33.1947C21.5066 33.3376 21.6173 33.4596 21.752 33.5502C21.8867 33.6407 22.0414 33.6972 22.2028 33.7146C22.3642 33.7319 22.5274 33.7098 22.6783 33.65L39.3667 27.1666C39.5538 27.0972 39.7149 26.9717 39.8283 26.8074C39.9416 26.6431 40.0015 26.4479 40 26.2483V11.4216C39.9982 11.1576 39.8921 10.9049 39.7048 10.7188C39.5174 10.5327 39.2641 10.4283 39 10.4283V10.4266ZM1.12667 10.4916C0.978689 10.4864 0.831225 10.5118 0.693548 10.5663C0.555871 10.6208 0.430959 10.7032 0.326667 10.8083C0.143333 10.9933 0 11.2166 0 11.4833V25.4083C0 26.145 0.858333 26.6366 1.51333 26.3083L11.9633 21.2983L12.475 21.0533L17.4233 18.66C18.2 18.2933 18.14 17.1466 17.3217 16.84L1.47167 10.5633C1.36225 10.5175 1.24524 10.4927 1.12667 10.49V10.4916Z" fill="black"/>
</svg>
