<svg width="40" height="40" viewBox="0 0 40 40" fill="none" xmlns="http://www.w3.org/2000/svg">
<path d="M15.9922 5C14.3359 5 12.9961 6.34375 12.9961 8C12.9961 8.79297 13.3125 9.55859 13.8711 10.1211C14.4336 10.6836 15.1953 11 15.9922 11H18.9883V8C18.9883 6.34766 17.6484 5.00391 15.9922 5ZM15.9922 13H7.99609C6.33984 13 5 14.3438 5 16C5 17.6562 6.34375 19 7.99609 19H15.9883C17.6445 19 18.9844 17.6562 18.9844 16C18.9883 14.3438 17.6445 13 15.9922 13ZM23.9844 19C25.6406 19 26.9844 17.6562 26.9805 16V8C26.9805 6.34375 25.6406 5 23.9844 5C22.3281 5 20.9883 6.34375 20.9883 8V16C20.9883 17.6602 22.3281 19 23.9844 19ZM34.9766 16C34.9766 14.3438 33.6328 13 31.9805 13C30.3281 13 28.9844 14.3438 28.9844 16V19H31.9805C33.6328 19 34.9766 17.6562 34.9766 16ZM31.9766 21H23.9844C22.3281 21 20.9883 22.3438 20.9883 24C20.9883 24.793 21.3047 25.5586 21.8633 26.1211C22.4258 26.6836 23.1875 27 23.9844 27H31.9766C33.6328 27 34.9727 25.6563 34.9727 24C34.9766 22.3438 33.6328 21.0039 31.9766 21ZM23.9844 29H20.9883V32C20.9883 33.6562 22.332 35 23.9844 35C25.6406 35 26.9844 33.6562 26.9805 32C26.9844 30.3438 25.6406 29.0039 23.9844 29ZM15.9922 21C14.3359 21 12.9961 22.3438 12.9961 24V32C12.9961 33.6562 14.3398 35 15.9922 35C17.6484 35 18.9922 33.6562 18.9883 32V24C18.9883 23.207 18.6719 22.4414 18.1133 21.8789C17.5508 21.3164 16.7852 21 15.9922 21ZM5 24C5 24.793 5.31641 25.5586 5.875 26.1211C6.4375 26.6836 7.19922 27 7.99609 27C9.65234 27 10.9961 25.6563 10.9922 24V21H7.99609C6.34375 21 5 22.3438 5 24Z" fill="white"/>
</svg>
