<svg width="40" height="40" viewBox="0 0 40 40" fill="none" xmlns="http://www.w3.org/2000/svg">
<g clip-path="url(#clip0_233_250)">
<path d="M19.9867 3.27668C19.2633 3.27668 18.5367 3.42001 17.8533 3.70501L2.965 9.86168C2.12667 10.2083 2.14833 11.375 2.985 11.7217L17.955 17.6517C19.2665 18.1833 20.7335 18.1833 22.045 17.6517L37.015 11.7217C37.8533 11.395 37.8533 10.2083 37.035 9.86168L22.1067 3.70501C21.4359 3.42139 20.7149 3.27571 19.9867 3.27668ZM39 13.4267C38.873 13.4275 38.7473 13.453 38.63 13.5017L21.9433 19.9633C21.7566 20.0398 21.5968 20.17 21.4841 20.3373C21.3713 20.5046 21.3108 20.7016 21.31 20.9033V35.73C21.3116 35.8923 21.3526 36.0518 21.4296 36.1947C21.5066 36.3376 21.6173 36.4596 21.752 36.5502C21.8867 36.6408 22.0414 36.6972 22.2028 36.7146C22.3642 36.732 22.5274 36.7098 22.6783 36.65L39.3667 30.1667C39.5538 30.0972 39.7149 29.9718 39.8283 29.8075C39.9416 29.6431 40.0015 29.4479 40 29.2483V14.4217C39.9982 14.1576 39.8921 13.905 39.7048 13.7189C39.5174 13.5328 39.2641 13.4283 39 13.4283V13.4267ZM1.12667 13.4917C0.978689 13.4864 0.831225 13.5118 0.693548 13.5663C0.555871 13.6208 0.430959 13.7032 0.326667 13.8083C0.143333 13.9933 0 14.2167 0 14.4833V28.4083C0 29.145 0.858333 29.6367 1.51333 29.3083L11.9633 24.2983L12.475 24.0533L17.4233 21.66C18.2 21.2933 18.14 20.1467 17.3217 19.84L1.47167 13.5633C1.36225 13.5176 1.24524 13.4927 1.12667 13.49V13.4917Z" fill="white"/>
</g>
<defs>
<clipPath id="clip0_233_250">
<rect width="40" height="40" fill="white"/>
</clipPath>
</defs>
</svg>
