<svg width="30" height="30" viewBox="0 0 30 30" fill="none" xmlns="http://www.w3.org/2000/svg">
<path d="M10.9922 0C9.33594 0 7.9961 1.34375 7.9961 3C7.9961 3.79297 8.3125 4.55859 8.87109 5.12109C9.43359 5.68359 10.1953 6 10.9922 6H13.9883V3C13.9883 1.34766 12.6484 0.00390625 10.9922 0ZM10.9922 8H2.99609C1.33984 8 0 9.34375 0 11C0 12.6562 1.34375 14 2.99609 14H10.9883C12.6445 14 13.9844 12.6562 13.9844 11C13.9883 9.34375 12.6445 8 10.9922 8ZM18.9844 14C20.6406 14 21.9844 12.6562 21.9805 11V3C21.9805 1.34375 20.6406 0 18.9844 0C17.3281 0 15.9883 1.34375 15.9883 3V11C15.9883 12.6602 17.3281 14 18.9844 14ZM29.9766 11C29.9766 9.34375 28.6328 8 26.9805 8C25.3281 8 23.9844 9.34375 23.9844 11V14H26.9805C28.6328 14 29.9766 12.6562 29.9766 11ZM26.9766 16H18.9844C17.3281 16 15.9883 17.3438 15.9883 19C15.9883 19.793 16.3047 20.5586 16.8633 21.1211C17.4258 21.6836 18.1875 22 18.9844 22H26.9766C28.6328 22 29.9727 20.6563 29.9727 19C29.9766 17.3438 28.6328 16.0039 26.9766 16ZM18.9844 24H15.9883V27C15.9883 28.6562 17.332 30 18.9844 30C20.6406 30 21.9844 28.6562 21.9805 27C21.9844 25.3438 20.6406 24.0039 18.9844 24ZM10.9922 16C9.33594 16 7.9961 17.3438 7.9961 19V27C7.9961 28.6562 9.33984 30 10.9922 30C12.6484 30 13.9922 28.6562 13.9883 27V19C13.9883 18.207 13.6719 17.4414 13.1133 16.8789C12.5508 16.3164 11.7852 16 10.9922 16ZM0 19C0 19.793 0.316406 20.5586 0.875 21.1211C1.4375 21.6836 2.19922 22 2.99609 22C4.65234 22 5.99609 20.6563 5.99219 19V16H2.99609C1.34375 16 0 17.3438 0 19Z" fill="black"/>
</svg>
