<svg width="24" height="24" viewBox="0 0 24 24" fill="none" xmlns="http://www.w3.org/2000/svg">
<path d="M23.5062 9.818H12.0512V14.727H18.5432C17.5062 18 14.9432 19.091 11.9992 19.091C10.8587 19.0924 9.73469 18.8186 8.72252 18.293C7.71036 17.7674 6.83992 17.0053 6.18505 16.0716C5.53018 15.1378 5.11021 14.0598 4.96077 12.9291C4.81132 11.7985 4.93682 10.6484 5.3266 9.57658C5.71638 8.50473 6.35896 7.54272 7.1998 6.77217C8.04065 6.00161 9.05495 5.44524 10.1567 5.15027C11.2584 4.85529 12.415 4.83042 13.5284 5.07774C14.6417 5.32507 15.679 5.83731 16.5522 6.571L20.1192 3.171C18.6825 1.84852 16.9448 0.896627 15.0568 0.397932C13.1689 -0.100764 11.1877 -0.131197 9.28535 0.309276C7.38297 0.749748 5.61682 1.64782 4.14017 2.92554C2.66352 4.20327 1.52099 5.82205 0.811734 7.6414C0.102477 9.46075 -0.152078 11.4257 0.0701598 13.3657C0.292398 15.3057 0.984714 17.1622 2.08703 18.774C3.18934 20.3859 4.66834 21.7043 6.39569 22.615C8.12303 23.5257 10.0465 24.0011 11.9992 24C18.6162 24 24.5992 19.636 23.5062 9.818Z" fill="white"/>
</svg>
