<svg width="20" height="20" viewBox="0 0 20 20" fill="none" xmlns="http://www.w3.org/2000/svg">
<g clip-path="url(#clip0_1050_1143)">
<path d="M4.99996 15C4.99996 15.4583 5.37496 15.8333 5.83329 15.8333H6.66663V18.75C6.66663 19.4417 7.22496 20 7.91663 20C8.60829 20 9.16663 19.4417 9.16663 18.75V15.8333H10.8333V18.75C10.8333 19.4417 11.3916 20 12.0833 20C12.775 20 13.3333 19.4417 13.3333 18.75V15.8333H14.1666C14.625 15.8333 15 15.4583 15 15V6.66667H4.99996V15ZM2.91663 6.66667C2.22496 6.66667 1.66663 7.225 1.66663 7.91667V13.75C1.66663 14.4417 2.22496 15 2.91663 15C3.60829 15 4.16663 14.4417 4.16663 13.75V7.91667C4.16663 7.225 3.60829 6.66667 2.91663 6.66667ZM17.0833 6.66667C16.3916 6.66667 15.8333 7.225 15.8333 7.91667V13.75C15.8333 14.4417 16.3916 15 17.0833 15C17.775 15 18.3333 14.4417 18.3333 13.75V7.91667C18.3333 7.225 17.775 6.66667 17.0833 6.66667ZM12.9416 1.8L14.025 0.716667C14.1916 0.55 14.1916 0.291667 14.025 0.125C13.8583 -0.0416667 13.6 -0.0416667 13.4333 0.125L12.2 1.35833C11.5416 1.025 10.7916 0.833333 9.99996 0.833333C9.19996 0.833333 8.44996 1.025 7.78329 1.35833L6.54163 0.125C6.37496 -0.0416667 6.11663 -0.0416667 5.94996 0.125C5.78329 0.291667 5.78329 0.55 5.94996 0.716667L7.04163 1.80833C5.80829 2.71667 4.99996 4.175 4.99996 5.83333H15C15 4.175 14.1916 2.70833 12.9416 1.8ZM8.33329 4.16667H7.49996V3.33333H8.33329V4.16667ZM12.5 4.16667H11.6666V3.33333H12.5V4.16667Z" fill="white"/>
</g>
<defs>
<clipPath id="clip0_1050_1143">
<rect width="20" height="20" fill="white"/>
</clipPath>
</defs>
</svg>
