<svg width="18" height="20" viewBox="0 0 18 20" fill="none" xmlns="http://www.w3.org/2000/svg">
<path d="M16.7951 13.7392C15.6801 13.3175 14.9342 12.305 14.8501 11.0975C14.7676 9.92082 15.3442 8.87582 16.3926 8.30166L17.2642 7.82416L16.6417 7.04916C15.5959 5.74666 14.0992 4.96832 12.6384 4.96832C11.6259 4.96832 10.9234 5.23332 10.3592 5.44666C9.96089 5.59749 9.64673 5.71582 9.30173 5.71582C8.9084 5.71582 8.52006 5.57749 8.07006 5.41749C7.48006 5.20749 6.81173 4.96916 5.95339 4.96916C4.29506 4.96916 2.62256 5.95916 1.58923 7.55082C0.0467281 9.92499 0.470061 13.9958 2.59589 17.2308C3.43839 18.5125 4.61923 19.985 6.29173 20C6.30256 20 6.31339 20 6.32423 20C7.69339 20 7.9934 19.27 9.32256 19.2617C10.7742 19.33 10.9576 20.0058 12.3134 19.9967C13.9476 19.9817 15.1259 18.5208 16.0626 17.0933C16.6159 16.2542 16.8301 15.815 17.2609 14.8617L17.6259 14.0533L16.7951 13.7392Z" fill="white"/>
<path d="M11.5834 2.87499C12.1251 2.17999 12.5359 1.19916 12.3867 0.196655C11.5017 0.257489 10.4684 0.819989 9.86424 1.55332C9.31591 2.21916 8.86341 3.20582 9.03924 4.16582C10.0042 4.19582 11.0034 3.61916 11.5834 2.87499Z" fill="white"/>
</svg>
